<?xml version="1.0" encoding="UTF-8"?>
<svg id="Ebene_1" xmlns="http://www.w3.org/2000/svg" width="10mm" height="10mm" version="1.1" viewBox="0 0 28.3 28.3">
  <!-- Generator: Adobe Illustrator 30.1.0, SVG Export Plug-In . SVG Version: 2.1.1 Build 136)  -->
  <defs>
    <style>
      .st0 {
        fill: #fff;
      }

      .st1 {
        fill: none;
        stroke: #fff;
        stroke-miterlimit: 10;
        stroke-width: 1.5px;
      }
    </style>
  </defs>
  <rect y="0" width="28.3" height="28.3" rx="5.7" ry="5.7"/>
  <path class="st0" d="M22,15.5c-.3-.3-.6-.5-1.1-.5s-1.1.3-1.4.8c-.1.3-.2.8-.2,1.4h-2.2c0-1,.2-1.7.5-2.3.6-1.1,1.6-1.7,3.2-1.7s2.2.3,2.9,1,1.1,1.5,1.1,2.6-.2,1.6-.8,2.2c-.3.4-.9.9-1.6,1.4l-.9.6c-.6.4-.9.7-1.1.9-.2.2-.4.4-.5.6h4.9v2h-7.8c0-.8.2-1.6.5-2.2.3-.8,1.1-1.6,2.2-2.4,1-.7,1.7-1.3,2-1.6.5-.5.7-1,.7-1.6s-.1-.9-.4-1.2Z"/>
  <path class="st0" d="M8.6,13.8h-2.3v-7.8h-2.7v-1.5c.7,0,1.2,0,1.5-.1.4,0,.8-.3,1.1-.6.2-.2.3-.5.4-.8v-.5h1.9v11.3h.1Z"/>
  <line class="st1" x1="4.3" y1="24.5" x2="25.2" y2="3"/>
</svg>