<?xml version="1.0" encoding="UTF-8"?>
<svg id="Ebene_1" xmlns="http://www.w3.org/2000/svg" width="220.6mm" height="57.6mm" xmlns:xlink="http://www.w3.org/1999/xlink" version="1.1" viewBox="0 0 625.3 163.2">
  <!-- Generator: Adobe Illustrator 30.1.0, SVG Export Plug-In . SVG Version: 2.1.1 Build 136)  -->
  <defs>
    <style>
      .st0 {
        fill: none;
        stroke: #000;
        stroke-miterlimit: 10;
        stroke-width: 2.1px;
      }
    </style>
  </defs>
  <image width="650" height="222" transform="translate(-12.4 -29.4)" xlink:href="../../../Downloads/typenskizze_sbb_re460_tn.jpg"/>
  <polyline class="st0" points="330.4 19.3 533 19.3 553.5 30.9 584.3 51.3 589.9 57.8 617.6 102.2 620.5 108.6 622 113 622 117.6 622 123.1 621.4 129.3 620.5 133.2 619 137.4 607.4 161.1 331.5 161.1"/>
  <polyline class="st0" points="330.7 19.3 92 19.3 71.6 30.9 40.8 51.3 35.2 57.8 7.5 102.2 4.5 108.6 3 113 3 117.6 3 123.1 3.6 129.3 4.5 133.2 6 137.4 17.6 161.1 331.5 161.1"/>
</svg>