<?xml version="1.0" encoding="UTF-8"?>
<svg id="Ebene_1" data-name="Ebene 1" xmlns="http://www.w3.org/2000/svg" viewBox="0 0 616.41 135.05">
  <defs>
    <style>
      .cls-1 {
        fill: none;
        stroke: #000;
        stroke-miterlimit: 10;
        stroke-width: 2px;
      }
    </style>
  </defs>
  <polyline class="cls-1" points="307.86 1 531.91 1 551.09 11.84 579.98 31.01 585.26 37.12 611.24 78.8 614.02 84.77 615.41 88.94 615.41 93.25 615.41 98.39 614.85 104.22 614.02 107.83 612.63 111.86 601.7 134.05 307.12 134.05"/>
  <polyline class="cls-1" points="308.55 1 84.49 1 65.32 11.84 36.43 31.01 31.15 37.12 5.17 78.8 2.39 84.77 1 88.94 1 93.25 1 98.39 1.56 104.22 2.39 107.83 3.78 111.86 14.7 134.05 309.29 134.05"/>
</svg>