<?xml version="1.0" encoding="UTF-8"?>
<svg id="Ebene_1" xmlns="http://www.w3.org/2000/svg" width="10mm" height="10mm" version="1.1" viewBox="0 0 28.3 28.3">
  <!-- Generator: Adobe Illustrator 30.1.0, SVG Export Plug-In . SVG Version: 2.1.1 Build 136)  -->
  <defs>
    <style>
      .st0 {
        fill: #fff;
      }
    </style>
  </defs>
  <rect y="0" width="28.3" height="28.3" rx="5.7" ry="5.7"/>
  <path class="st0" d="M15.8,9c-.4-.5-1-.7-1.7-.7s-1.7.4-2.1,1.1c-.2.4-.3,1.1-.4,2.1h-3.2c0-1.4.3-2.6.8-3.5.9-1.7,2.5-2.5,4.7-2.5s3.2.5,4.3,1.5,1.6,2.3,1.6,4-.4,2.4-1.1,3.4c-.5.6-1.3,1.4-2.4,2.2l-1.3.9c-.8.6-1.4,1-1.7,1.3s-.6.6-.8.9h7.4v2.9h-11.6c0-1.2.3-2.3.8-3.3.5-1.1,1.6-2.3,3.4-3.6,1.5-1.1,2.5-1.9,3-2.4.7-.7,1-1.6,1-2.4s-.2-1.3-.6-1.8h-.1Z"/>
</svg>